<svg id="visual" viewBox="0 0 1920 200" width="1920" height="200" xmlns="http://www.w3.org/2000/svg" xmlns:xlink="http://www.w3.org/1999/xlink" version="1.1"><path d="M0 121L16 123C32 125 64 129 96 119.7C128 110.3 160 87.7 192 86.5C224 85.3 256 105.7 288 102.5C320 99.3 352 72.7 384 71.3C416 70 448 94 480 100C512 106 544 94 576 79.3C608 64.7 640 47.3 672 41.2C704 35 736 40 768 54C800 68 832 91 864 104.8C896 118.7 928 123.3 960 117.7C992 112 1024 96 1056 95C1088 94 1120 108 1152 112.2C1184 116.3 1216 110.7 1248 114C1280 117.3 1312 129.7 1344 122C1376 114.3 1408 86.7 1440 69C1472 51.3 1504 43.7 1536 45.3C1568 47 1600 58 1632 70.5C1664 83 1696 97 1728 98.7C1760 100.3 1792 89.7 1824 76.2C1856 62.7 1888 46.3 1904 38.2L1920 30L1920 201L1904 201C1888 201 1856 201 1824 201C1792 201 1760 201 1728 201C1696 201 1664 201 1632 201C1600 201 1568 201 1536 201C1504 201 1472 201 1440 201C1408 201 1376 201 1344 201C1312 201 1280 201 1248 201C1216 201 1184 201 1152 201C1120 201 1088 201 1056 201C1024 201 992 201 960 201C928 201 896 201 864 201C832 201 800 201 768 201C736 201 704 201 672 201C640 201 608 201 576 201C544 201 512 201 480 201C448 201 416 201 384 201C352 201 320 201 288 201C256 201 224 201 192 201C160 201 128 201 96 201C64 201 32 201 16 201L0 201Z" fill="#529fe8"></path><path d="M0 48L16 55.5C32 63 64 78 96 78C128 78 160 63 192 55.5C224 48 256 48 288 53.7C320 59.3 352 70.7 384 85.5C416 100.3 448 118.7 480 120.5C512 122.3 544 107.7 576 108.3C608 109 640 125 672 132.3C704 139.7 736 138.3 768 140.2C800 142 832 147 864 146.2C896 145.3 928 138.7 960 130.7C992 122.7 1024 113.3 1056 105.7C1088 98 1120 92 1152 95.7C1184 99.3 1216 112.7 1248 114.7C1280 116.7 1312 107.3 1344 96.7C1376 86 1408 74 1440 73.7C1472 73.3 1504 84.7 1536 83.2C1568 81.7 1600 67.3 1632 67.7C1664 68 1696 83 1728 83C1760 83 1792 68 1824 74.2C1856 80.3 1888 107.7 1904 121.3L1920 135L1920 201L1904 201C1888 201 1856 201 1824 201C1792 201 1760 201 1728 201C1696 201 1664 201 1632 201C1600 201 1568 201 1536 201C1504 201 1472 201 1440 201C1408 201 1376 201 1344 201C1312 201 1280 201 1248 201C1216 201 1184 201 1152 201C1120 201 1088 201 1056 201C1024 201 992 201 960 201C928 201 896 201 864 201C832 201 800 201 768 201C736 201 704 201 672 201C640 201 608 201 576 201C544 201 512 201 480 201C448 201 416 201 384 201C352 201 320 201 288 201C256 201 224 201 192 201C160 201 128 201 96 201C64 201 32 201 16 201L0 201Z" fill="#7eb1ed"></path><path d="M0 90L16 97.2C32 104.3 64 118.7 96 126.3C128 134 160 135 192 135.7C224 136.3 256 136.7 288 132.8C320 129 352 121 384 119.5C416 118 448 123 480 122.2C512 121.3 544 114.7 576 109.5C608 104.3 640 100.7 672 106.2C704 111.7 736 126.3 768 127.7C800 129 832 117 864 107.3C896 97.7 928 90.3 960 94.2C992 98 1024 113 1056 120.5C1088 128 1120 128 1152 131C1184 134 1216 140 1248 135.3C1280 130.7 1312 115.3 1344 107C1376 98.7 1408 97.3 1440 108.7C1472 120 1504 144 1536 146.2C1568 148.3 1600 128.7 1632 114.8C1664 101 1696 93 1728 88.5C1760 84 1792 83 1824 91C1856 99 1888 116 1904 124.5L1920 133L1920 201L1904 201C1888 201 1856 201 1824 201C1792 201 1760 201 1728 201C1696 201 1664 201 1632 201C1600 201 1568 201 1536 201C1504 201 1472 201 1440 201C1408 201 1376 201 1344 201C1312 201 1280 201 1248 201C1216 201 1184 201 1152 201C1120 201 1088 201 1056 201C1024 201 992 201 960 201C928 201 896 201 864 201C832 201 800 201 768 201C736 201 704 201 672 201C640 201 608 201 576 201C544 201 512 201 480 201C448 201 416 201 384 201C352 201 320 201 288 201C256 201 224 201 192 201C160 201 128 201 96 201C64 201 32 201 16 201L0 201Z" fill="#a1c4f2"></path><path d="M0 146L16 144.3C32 142.7 64 139.3 96 135.3C128 131.3 160 126.7 192 130.7C224 134.7 256 147.3 288 151.7C320 156 352 152 384 142.8C416 133.7 448 119.3 480 116.2C512 113 544 121 576 119.7C608 118.3 640 107.7 672 103.2C704 98.7 736 100.3 768 112.3C800 124.3 832 146.7 864 154.8C896 163 928 157 960 147.2C992 137.3 1024 123.7 1056 123.8C1088 124 1120 138 1152 137.5C1184 137 1216 122 1248 126C1280 130 1312 153 1344 157.2C1376 161.3 1408 146.7 1440 141.2C1472 135.7 1504 139.3 1536 145.7C1568 152 1600 161 1632 162.3C1664 163.7 1696 157.3 1728 151.5C1760 145.7 1792 140.3 1824 133.5C1856 126.7 1888 118.3 1904 114.2L1920 110L1920 201L1904 201C1888 201 1856 201 1824 201C1792 201 1760 201 1728 201C1696 201 1664 201 1632 201C1600 201 1568 201 1536 201C1504 201 1472 201 1440 201C1408 201 1376 201 1344 201C1312 201 1280 201 1248 201C1216 201 1184 201 1152 201C1120 201 1088 201 1056 201C1024 201 992 201 960 201C928 201 896 201 864 201C832 201 800 201 768 201C736 201 704 201 672 201C640 201 608 201 576 201C544 201 512 201 480 201C448 201 416 201 384 201C352 201 320 201 288 201C256 201 224 201 192 201C160 201 128 201 96 201C64 201 32 201 16 201L0 201Z" fill="#c2d8f6"></path><path d="M0 128L16 131.3C32 134.7 64 141.3 96 145.7C128 150 160 152 192 155.7C224 159.3 256 164.7 288 159.3C320 154 352 138 384 137C416 136 448 150 480 159.8C512 169.7 544 175.3 576 173.3C608 171.3 640 161.7 672 154.8C704 148 736 144 768 139.7C800 135.3 832 130.7 864 137.5C896 144.3 928 162.7 960 166.2C992 169.7 1024 158.3 1056 153.8C1088 149.3 1120 151.7 1152 155C1184 158.3 1216 162.7 1248 167.2C1280 171.7 1312 176.3 1344 169.2C1376 162 1408 143 1440 134.7C1472 126.3 1504 128.7 1536 135C1568 141.3 1600 151.7 1632 151.3C1664 151 1696 140 1728 133.8C1760 127.7 1792 126.3 1824 129.8C1856 133.3 1888 141.7 1904 145.8L1920 150L1920 201L1904 201C1888 201 1856 201 1824 201C1792 201 1760 201 1728 201C1696 201 1664 201 1632 201C1600 201 1568 201 1536 201C1504 201 1472 201 1440 201C1408 201 1376 201 1344 201C1312 201 1280 201 1248 201C1216 201 1184 201 1152 201C1120 201 1088 201 1056 201C1024 201 992 201 960 201C928 201 896 201 864 201C832 201 800 201 768 201C736 201 704 201 672 201C640 201 608 201 576 201C544 201 512 201 480 201C448 201 416 201 384 201C352 201 320 201 288 201C256 201 224 201 192 201C160 201 128 201 96 201C64 201 32 201 16 201L0 201Z" fill="#e1ebfb"></path><path d="M0 175L16 174.5C32 174 64 173 96 170.2C128 167.3 160 162.7 192 164C224 165.3 256 172.7 288 173.5C320 174.3 352 168.7 384 165.8C416 163 448 163 480 164C512 165 544 167 576 171.7C608 176.3 640 183.7 672 185.7C704 187.7 736 184.3 768 177.5C800 170.7 832 160.3 864 160.2C896 160 928 170 960 174.7C992 179.3 1024 178.7 1056 180.5C1088 182.3 1120 186.7 1152 186.3C1184 186 1216 181 1248 174C1280 167 1312 158 1344 156C1376 154 1408 159 1440 159.7C1472 160.3 1504 156.7 1536 160.2C1568 163.7 1600 174.3 1632 175.2C1664 176 1696 167 1728 167.7C1760 168.3 1792 178.7 1824 178.7C1856 178.7 1888 168.3 1904 163.2L1920 158L1920 201L1904 201C1888 201 1856 201 1824 201C1792 201 1760 201 1728 201C1696 201 1664 201 1632 201C1600 201 1568 201 1536 201C1504 201 1472 201 1440 201C1408 201 1376 201 1344 201C1312 201 1280 201 1248 201C1216 201 1184 201 1152 201C1120 201 1088 201 1056 201C1024 201 992 201 960 201C928 201 896 201 864 201C832 201 800 201 768 201C736 201 704 201 672 201C640 201 608 201 576 201C544 201 512 201 480 201C448 201 416 201 384 201C352 201 320 201 288 201C256 201 224 201 192 201C160 201 128 201 96 201C64 201 32 201 16 201L0 201Z" fill="#ffffff"></path></svg>