<svg id="visual" viewBox="0 0 1920 1080" width="1920" height="1080" xmlns="http://www.w3.org/2000/svg" xmlns:xlink="http://www.w3.org/1999/xlink" version="1.1"><path d="M0 785L18.8 798.2C37.7 811.3 75.3 837.7 113 840.7C150.7 843.7 188.3 823.3 226 812.2C263.7 801 301.3 799 339 797.8C376.7 796.7 414.3 796.3 452 818.8C489.7 841.3 527.3 886.7 565 890.2C602.7 893.7 640.3 855.3 678 832C715.7 808.7 753.3 800.3 791 813.5C828.7 826.7 866.3 861.3 903.8 866.8C941.3 872.3 978.7 848.7 1016.2 836C1053.7 823.3 1091.3 821.7 1129 843.3C1166.7 865 1204.3 910 1242 913.3C1279.7 916.7 1317.3 878.3 1355 870.5C1392.7 862.7 1430.3 885.3 1468 899C1505.7 912.7 1543.3 917.3 1581 922.5C1618.7 927.7 1656.3 933.3 1694 915.5C1731.7 897.7 1769.3 856.3 1807 834.5C1844.7 812.7 1882.3 810.3 1901.2 809.2L1920 808L1920 1081L1901.2 1081C1882.3 1081 1844.7 1081 1807 1081C1769.3 1081 1731.7 1081 1694 1081C1656.3 1081 1618.7 1081 1581 1081C1543.3 1081 1505.7 1081 1468 1081C1430.3 1081 1392.7 1081 1355 1081C1317.3 1081 1279.7 1081 1242 1081C1204.3 1081 1166.7 1081 1129 1081C1091.3 1081 1053.7 1081 1016.2 1081C978.7 1081 941.3 1081 903.8 1081C866.3 1081 828.7 1081 791 1081C753.3 1081 715.7 1081 678 1081C640.3 1081 602.7 1081 565 1081C527.3 1081 489.7 1081 452 1081C414.3 1081 376.7 1081 339 1081C301.3 1081 263.7 1081 226 1081C188.3 1081 150.7 1081 113 1081C75.3 1081 37.7 1081 18.8 1081L0 1081Z" fill="#529fe8"></path><path d="M0 965L18.8 968.8C37.7 972.7 75.3 980.3 113 971.5C150.7 962.7 188.3 937.3 226 912C263.7 886.7 301.3 861.3 339 873.8C376.7 886.3 414.3 936.7 452 950.2C489.7 963.7 527.3 940.3 565 916.5C602.7 892.7 640.3 868.3 678 857.7C715.7 847 753.3 850 791 851.7C828.7 853.3 866.3 853.7 903.8 870.8C941.3 888 978.7 922 1016.2 937C1053.7 952 1091.3 948 1129 947C1166.7 946 1204.3 948 1242 949.8C1279.7 951.7 1317.3 953.3 1355 937.2C1392.7 921 1430.3 887 1468 872.5C1505.7 858 1543.3 863 1581 869C1618.7 875 1656.3 882 1694 895.3C1731.7 908.7 1769.3 928.3 1807 942.5C1844.7 956.7 1882.3 965.3 1901.2 969.7L1920 974L1920 1081L1901.2 1081C1882.3 1081 1844.7 1081 1807 1081C1769.3 1081 1731.7 1081 1694 1081C1656.3 1081 1618.7 1081 1581 1081C1543.3 1081 1505.7 1081 1468 1081C1430.3 1081 1392.7 1081 1355 1081C1317.3 1081 1279.7 1081 1242 1081C1204.3 1081 1166.7 1081 1129 1081C1091.3 1081 1053.7 1081 1016.2 1081C978.7 1081 941.3 1081 903.8 1081C866.3 1081 828.7 1081 791 1081C753.3 1081 715.7 1081 678 1081C640.3 1081 602.7 1081 565 1081C527.3 1081 489.7 1081 452 1081C414.3 1081 376.7 1081 339 1081C301.3 1081 263.7 1081 226 1081C188.3 1081 150.7 1081 113 1081C75.3 1081 37.7 1081 18.8 1081L0 1081Z" fill="#87b6ee"></path><path d="M0 886L18.8 902.3C37.7 918.7 75.3 951.3 113 962.3C150.7 973.3 188.3 962.7 226 955.3C263.7 948 301.3 944 339 939.8C376.7 935.7 414.3 931.3 452 942.8C489.7 954.3 527.3 981.7 565 988.3C602.7 995 640.3 981 678 970C715.7 959 753.3 951 791 946.7C828.7 942.3 866.3 941.7 903.8 939C941.3 936.3 978.7 931.7 1016.2 931.5C1053.7 931.3 1091.3 935.7 1129 945C1166.7 954.3 1204.3 968.7 1242 964.2C1279.7 959.7 1317.3 936.3 1355 933C1392.7 929.7 1430.3 946.3 1468 948.5C1505.7 950.7 1543.3 938.3 1581 931.8C1618.7 925.3 1656.3 924.7 1694 922.8C1731.7 921 1769.3 918 1807 923.2C1844.7 928.3 1882.3 941.7 1901.2 948.3L1920 955L1920 1081L1901.2 1081C1882.3 1081 1844.7 1081 1807 1081C1769.3 1081 1731.7 1081 1694 1081C1656.3 1081 1618.7 1081 1581 1081C1543.3 1081 1505.7 1081 1468 1081C1430.3 1081 1392.7 1081 1355 1081C1317.3 1081 1279.7 1081 1242 1081C1204.3 1081 1166.7 1081 1129 1081C1091.3 1081 1053.7 1081 1016.2 1081C978.7 1081 941.3 1081 903.8 1081C866.3 1081 828.7 1081 791 1081C753.3 1081 715.7 1081 678 1081C640.3 1081 602.7 1081 565 1081C527.3 1081 489.7 1081 452 1081C414.3 1081 376.7 1081 339 1081C301.3 1081 263.7 1081 226 1081C188.3 1081 150.7 1081 113 1081C75.3 1081 37.7 1081 18.8 1081L0 1081Z" fill="#b2cef4"></path><path d="M0 942L18.8 947.7C37.7 953.3 75.3 964.7 113 977C150.7 989.3 188.3 1002.7 226 999.3C263.7 996 301.3 976 339 967.8C376.7 959.7 414.3 963.3 452 959.8C489.7 956.3 527.3 945.7 565 942.8C602.7 940 640.3 945 678 956.2C715.7 967.3 753.3 984.7 791 987.5C828.7 990.3 866.3 978.7 903.8 983C941.3 987.3 978.7 1007.7 1016.2 1004.7C1053.7 1001.7 1091.3 975.3 1129 974.7C1166.7 974 1204.3 999 1242 1003.7C1279.7 1008.3 1317.3 992.7 1355 993C1392.7 993.3 1430.3 1009.7 1468 1013.3C1505.7 1017 1543.3 1008 1581 994.2C1618.7 980.3 1656.3 961.7 1694 958C1731.7 954.3 1769.3 965.7 1807 972.8C1844.7 980 1882.3 983 1901.2 984.5L1920 986L1920 1081L1901.2 1081C1882.3 1081 1844.7 1081 1807 1081C1769.3 1081 1731.7 1081 1694 1081C1656.3 1081 1618.7 1081 1581 1081C1543.3 1081 1505.7 1081 1468 1081C1430.3 1081 1392.7 1081 1355 1081C1317.3 1081 1279.7 1081 1242 1081C1204.3 1081 1166.7 1081 1129 1081C1091.3 1081 1053.7 1081 1016.2 1081C978.7 1081 941.3 1081 903.8 1081C866.3 1081 828.7 1081 791 1081C753.3 1081 715.7 1081 678 1081C640.3 1081 602.7 1081 565 1081C527.3 1081 489.7 1081 452 1081C414.3 1081 376.7 1081 339 1081C301.3 1081 263.7 1081 226 1081C188.3 1081 150.7 1081 113 1081C75.3 1081 37.7 1081 18.8 1081L0 1081Z" fill="#d9e6fa"></path><path d="M0 1002L18.8 1003C37.7 1004 75.3 1006 113 1002.8C150.7 999.7 188.3 991.3 226 1001C263.7 1010.7 301.3 1038.3 339 1049.3C376.7 1060.3 414.3 1054.7 452 1053.3C489.7 1052 527.3 1055 565 1045.5C602.7 1036 640.3 1014 678 1006.2C715.7 998.3 753.3 1004.7 791 1015.5C828.7 1026.3 866.3 1041.7 903.8 1050C941.3 1058.3 978.7 1059.7 1016.2 1053.5C1053.7 1047.3 1091.3 1033.7 1129 1022.5C1166.7 1011.3 1204.3 1002.7 1242 1004.2C1279.7 1005.7 1317.3 1017.3 1355 1025.8C1392.7 1034.3 1430.3 1039.7 1468 1044.2C1505.7 1048.7 1543.3 1052.3 1581 1049.5C1618.7 1046.7 1656.3 1037.3 1694 1035.8C1731.7 1034.3 1769.3 1040.7 1807 1047.3C1844.7 1054 1882.3 1061 1901.2 1064.5L1920 1068L1920 1081L1901.2 1081C1882.3 1081 1844.7 1081 1807 1081C1769.3 1081 1731.7 1081 1694 1081C1656.3 1081 1618.7 1081 1581 1081C1543.3 1081 1505.7 1081 1468 1081C1430.3 1081 1392.7 1081 1355 1081C1317.3 1081 1279.7 1081 1242 1081C1204.3 1081 1166.7 1081 1129 1081C1091.3 1081 1053.7 1081 1016.2 1081C978.7 1081 941.3 1081 903.8 1081C866.3 1081 828.7 1081 791 1081C753.3 1081 715.7 1081 678 1081C640.3 1081 602.7 1081 565 1081C527.3 1081 489.7 1081 452 1081C414.3 1081 376.7 1081 339 1081C301.3 1081 263.7 1081 226 1081C188.3 1081 150.7 1081 113 1081C75.3 1081 37.7 1081 18.8 1081L0 1081Z" fill="#ffffff"></path></svg>